<?xml version="1.0" standalone="no"?>
<!DOCTYPE svg PUBLIC "-//W3C//DTD SVG 20010904//EN"
 "http://www.w3.org/TR/2001/REC-SVG-20010904/DTD/svg10.dtd">
<svg version="1.0" xmlns="http://www.w3.org/2000/svg"
 width="129.000000pt" height="129.000000pt" viewBox="0 0 129.000000 129.000000"
 preserveAspectRatio="xMidYMid meet">
<metadata>
Created by potrace 1.14, written by Peter Selinger 2001-2017
</metadata>
<g transform="translate(0.000000,129.000000) scale(0.100000,-0.100000)"
fill="#000000" stroke="none">
<path d="M245 1008 c-51 -156 -235 -727 -235 -732 0 -3 52 -5 116 -4 l117 3
17 53 c18 54 17 56 -27 52 -22 -1 -22 0 -8 42 44 136 130 400 144 441 15 44
18 48 44 44 15 -2 31 1 35 7 10 16 32 79 32 94 0 17 -229 17 -235 0z"/>
<path d="M562 993 c-11 -27 -204 -616 -217 -661 l-6 -22 182 2 182 3 18 53 18
52 -47 1 c-26 0 -68 1 -94 1 -30 -1 -48 3 -48 11 0 6 14 55 32 109 l32 98 82
0 82 0 16 47 c9 26 16 51 16 57 0 7 -28 11 -79 9 l-78 -2 18 60 c31 101 26 97
130 95 l92 -1 13 31 c7 16 16 42 19 57 l7 27 -180 0 -180 0 -10 -27z"/>
<path d="M1045 1008 c-11 -32 -35 -101 -35 -103 0 -1 14 0 30 3 18 3 30 0 30
-7 0 -7 -33 -114 -74 -239 -41 -125 -77 -237 -81 -249 -5 -18 -14 -23 -39 -23
-36 0 -49 -18 -61 -82 l-6 -33 112 2 c61 1 114 5 117 7 5 6 225 667 236 710
l6 26 -115 0 c-83 0 -117 -3 -120 -12z"/>
</g>
</svg>
