<?xml version="1.0" standalone="no"?>
<!DOCTYPE svg PUBLIC "-//W3C//DTD SVG 20010904//EN"
 "http://www.w3.org/TR/2001/REC-SVG-20010904/DTD/svg10.dtd">
<svg version="1.0" xmlns="http://www.w3.org/2000/svg"
 width="500.000000pt" height="500.000000pt" viewBox="0 0 500.000000 500.000000"
 preserveAspectRatio="xMidYMid meet">
<metadata>
Created by potrace 1.14, written by Peter Selinger 2001-2017
</metadata>
<g transform="translate(0.000000,500.000000) scale(0.100000,-0.100000)"
fill="#000000" stroke="none">
<path d="M3504 4262 c-20 -3 -21 -8 -20 -190 0 -103 3 -189 7 -192 4 -3 68 -5
143 -5 130 1 136 0 137 -20 0 -11 1 -608 2 -1327 l2 -1308 -35 -1 c-19 0 -84
-2 -145 -2 l-110 -2 -1 -192 -1 -193 366 0 367 0 -1 1709 c0 940 -3 1713 -7
1717 -7 6 -659 12 -704 6z"/>
<path d="M905 4252 l-50 -3 2 -1697 c1 -933 2 -1705 2 -1714 1 -17 25 -18 366
-18 l365 0 0 194 0 194 -117 0 c-65 0 -130 1 -145 1 l-28 1 0 1328 0 1329 143
-1 142 0 3 192 c1 106 -1 192 -5 192 -41 3 -640 4 -678 2z"/>
<path d="M1925 3910 c-4 -6 -5 -37 -5 -92 0 -10 0 -26 0 -35 0 -10 -1 -36 -1
-58 0 -22 0 -61 -1 -87 0 -25 3 -51 6 -57 4 -5 2 -12 -4 -16 -6 -4 -7 -12 -1
-24 5 -9 6 -23 1 -31 -4 -7 -4 -24 0 -36 6 -14 5 -26 0 -29 -6 -4 -7 -13 -1
-24 5 -9 6 -23 1 -31 -4 -7 -4 -24 0 -36 6 -14 5 -26 0 -29 -6 -4 -7 -13 -1
-24 5 -9 6 -23 1 -31 -4 -7 -4 -24 0 -36 6 -14 5 -26 0 -29 -6 -4 -7 -13 -1
-24 5 -9 6 -23 1 -31 -4 -7 -4 -23 0 -35 5 -14 4 -27 -2 -33 -6 -6 -6 -12 1
-16 7 -5 7 -15 1 -31 -6 -15 -6 -25 0 -25 5 0 5 -12 0 -30 -5 -17 -5 -32 0
-35 5 -3 5 -16 0 -30 -6 -15 -6 -25 0 -25 5 0 5 -12 0 -30 -5 -17 -5 -32 0
-35 5 -3 5 -16 0 -30 -6 -15 -6 -25 0 -25 5 0 5 -12 0 -30 -5 -17 -5 -32 0
-35 5 -3 5 -16 0 -30 -5 -14 -6 -25 -2 -25 4 0 7 -18 7 -40 0 -22 -3 -40 -7
-40 -4 0 -3 -11 2 -25 5 -14 5 -27 0 -30 -5 -3 -5 -18 -1 -33 5 -15 5 -36 1
-47 -4 -11 -4 -30 1 -42 5 -12 4 -25 -1 -28 -5 -3 -5 -18 0 -35 5 -17 6 -30 2
-30 -8 0 -7 -68 1 -76 3 -3 2 -17 -3 -30 -6 -14 -6 -24 0 -24 5 0 5 -12 0 -30
-5 -17 -5 -32 0 -35 5 -3 5 -16 0 -30 -5 -14 -6 -25 -1 -25 5 0 5 -16 1 -35
-4 -19 -5 -35 -1 -35 3 0 6 -13 6 -30 0 -16 -3 -30 -6 -30 -4 0 -3 -16 1 -35
4 -20 4 -38 -1 -41 -5 -3 -5 -12 0 -23 5 -9 6 -23 1 -31 -4 -7 -4 -24 0 -36 6
-14 5 -26 0 -29 -6 -4 -7 -13 -1 -24 5 -9 6 -23 1 -31 -4 -7 -4 -24 0 -36 6
-14 5 -26 0 -29 -6 -4 -7 -13 -1 -24 5 -9 6 -23 1 -31 -4 -7 -4 -23 0 -36 5
-12 7 -24 4 -27 -8 -7 -9 -107 -2 -107 4 0 5 -6 2 -14 -8 -20 -10 -106 -2
-106 3 0 4 -9 1 -20 -3 -11 1 -28 8 -37 12 -14 12 -16 0 -9 -9 6 -12 4 -9 -5
4 -12 101 -14 594 -16 426 -1 590 1 595 9 8 13 11 350 3 388 l-5 25 -167 0
c-92 0 -173 -4 -181 -9 -9 -6 -12 -5 -8 0 7 13 -293 12 -312 0 -10 -7 -12 -5
-6 3 5 9 -1 11 -25 8 -21 -4 -30 -2 -27 6 2 7 0 22 -4 35 -6 14 -5 21 0 17 6
-3 9 4 8 15 -1 11 -5 20 -10 20 -5 0 -5 6 2 13 11 14 8 47 -5 69 -4 6 -3 8 4
4 7 -4 10 1 9 14 -1 11 -5 20 -10 20 -5 0 -5 6 2 13 11 14 8 47 -5 69 -4 6 -3
8 4 4 7 -4 10 1 9 14 -1 11 -5 20 -10 20 -4 0 -5 5 -1 12 9 14 12 208 3 208
-3 0 -6 7 -6 15 0 8 4 12 8 9 4 -2 7 5 6 16 -1 11 -5 20 -10 20 -4 0 -5 6 0
13 9 14 12 87 3 87 -4 0 -7 7 -7 15 0 8 4 12 8 9 4 -2 7 5 6 16 -1 11 -6 20
-11 20 -6 0 -6 4 0 10 6 6 121 11 300 13 l289 2 3 199 c2 129 -1 203 -7 209
-13 13 -240 16 -248 4 -3 -4 -10 -4 -16 1 -14 10 -107 10 -124 -1 -6 -4 -14
-3 -17 1 -6 10 -66 9 -83 -1 -6 -4 -14 -3 -17 2 -3 5 -24 8 -46 6 -31 -2 -38
0 -30 9 10 13 7 47 -6 68 -4 6 -3 8 4 4 7 -4 10 1 9 14 -1 11 -5 20 -10 20 -5
0 -5 6 2 13 11 14 8 47 -5 69 -4 6 -3 8 4 4 7 -4 10 1 9 14 -1 11 -5 20 -10
20 -5 0 -5 6 2 13 8 10 7 17 -2 27 -9 9 -9 11 0 6 8 -4 11 1 10 14 -1 11 -5
20 -10 20 -5 0 -5 6 2 13 11 14 8 47 -5 69 -4 6 -3 8 4 4 7 -4 10 1 9 14 -1
11 -5 20 -10 20 -5 0 -5 6 2 13 11 14 8 47 -5 69 -4 6 -3 8 4 4 7 -4 10 1 9
14 -1 11 -5 20 -10 20 -5 0 -5 6 2 13 8 10 7 17 -2 27 -9 9 -9 11 0 6 8 -4 11
1 10 14 -1 11 -5 20 -10 20 -5 0 -4 6 2 13 6 8 8 17 4 20 -7 8 8 9 132 9 53 0
96 4 104 11 10 8 13 8 8 1 -4 -8 17 -11 73 -11 53 0 80 3 80 11 0 8 2 8 8 0 9
-13 210 -13 231 0 9 6 12 5 8 -1 -6 -9 50 -12 84 -4 3 0 6 93 7 206 0 182 -2
205 -16 209 -26 8 -1172 4 -1177 -4z"/>
</g>
</svg>
